<?xml version="1.0" standalone="no"?><!DOCTYPE svg PUBLIC "-//W3C//DTD SVG 1.1//EN" "http://www.w3.org/Graphics/SVG/1.1/DTD/svg11.dtd"><svg t="1720869988921" class="icon" viewBox="0 0 1024 1024" version="1.1" xmlns="http://www.w3.org/2000/svg" p-id="2687" xmlns:xlink="http://www.w3.org/1999/xlink" width="200" height="200"><path d="M297.690434 540.855673a257.989139 240.372205 0 1 0 515.978279 0 257.989139 240.372205 0 1 0-515.978279 0Z" fill="#E89B54" p-id="2688"></path><path d="M74.603303 454.466726a257.989139 240.376252 0 1 0 515.978279 0 257.989139 240.376252 0 1 0-515.978279 0Z" fill="#E89B54" p-id="2689"></path><path d="M204.975903 240.380299a257.989139 240.380299 0 1 0 515.978279 0 257.989139 240.380299 0 1 0-515.978279 0Z" fill="#E89B54" p-id="2690"></path><path d="M433.401131 357.867a257.989139 240.380299 0 1 0 515.978279 0 257.989139 240.380299 0 1 0-515.978279 0Z" fill="#E89B54" p-id="2691"></path><path d="M121.970315 424.623566a212.095264 197.618863 0 1 0 424.190529 0 212.095264 197.618863 0 1 0-424.190529 0Z" fill="#FFCC66" p-id="2692"></path><path d="M177.892851 394.48497a145.083732 135.176483 0 1 0 290.167464 0 145.083732 135.176483 0 1 0-290.167464 0Z" fill="#FFE28C" p-id="2693"></path><path d="M487.988132 325.587498a212.095264 197.618863 0 1 0 424.190528 0 212.095264 197.618863 0 1 0-424.190528 0Z" fill="#FFCC66" p-id="2694"></path><path d="M543.910668 295.444855a145.083732 135.176483 0 1 0 290.167464 0 145.083732 135.176483 0 1 0-290.167464 0Z" fill="#FFE28C" p-id="2695"></path><path d="M248.522472 202.171827a212.095264 197.614816 0 1 0 424.190529 0 212.095264 197.614816 0 1 0-424.190529 0Z" fill="#FFCC66" p-id="2696"></path><path d="M304.440962 172.029183a145.083732 135.176483 0 1 0 290.167463 0 145.083732 135.176483 0 1 0-290.167463 0Z" fill="#FFE28C" p-id="2697"></path><path d="M302.826177 470.873584a212.095264 197.618863 0 1 0 424.190529 0 212.095264 197.618863 0 1 0-424.190529 0Z" fill="#FFCC66" p-id="2698"></path><path d="M358.748714 440.73094a145.083732 135.18053 0 1 0 290.167463 0 145.083732 135.18053 0 1 0-290.167463 0Z" fill="#FFE28C" p-id="2699"></path><path d="M460.905079 589.206124s41.227593 254.609828-118.182798 434.777688h368.110157c-3.654512-5.054802-321.516137-429.714792 32.251171-682.143245 0 0-187.444507 101.197208-187.444506 174.283406 0 112.47237 54.417023-200.520619-151.166492-290.475041 0 0 145.573428 84.936045 96.745421 326.081242 0 0-24.185344-142.424801-193.490842-142.424801 0-0.004047 153.17789 29.980761 153.177889 179.900751z" fill="#D57E58" p-id="2700"></path><path d="M501.218032 551.726127c-2.614413 110.999233 35.909731 301.402155 35.909732 301.402154-24.666946-149.74192 24.666946-361.63483 24.666946-361.63483v-0.004047 0.004047c-3.399546-73.794437-32.222842-211.107777-157.318052-265.844519-0.004047-0.004047 145.569381 84.931998 96.741374 326.077195z" fill="#BA6E4D" p-id="2701"></path><path d="M743.083609 341.83652s-148.952739 80.419505-181.292946 149.652884c-3.399546-73.794437-32.222842-211.107777-157.318052-265.844519 0 0 145.573428 84.936045 96.745421 326.081242 0 0-24.185344-142.424801-193.490842-142.424801 0 0 153.181937 29.984808 153.181937 179.904798 0 0 41.227593 254.609828-118.182799 434.777688 0 0 119.429299-79.241805 160.066018-414.093067l40.584107-16.783237s1.809044 265.229363 167.460032 430.880351c-3.658559-5.058849-321.520184-429.718839 32.247124-682.151339z" fill="#BA6E4D" p-id="2702"></path><path d="M486.118381 1023.983812c0.250919-0.076894 43.793441-60.762843 48.775395-203.232162 0 0 22.437005 154.825051 46.747809 203.232162h-95.523204z" fill="#BA6E4D" p-id="2703"></path></svg>